<?xml version="1.0" encoding="UTF-8"?>
<!DOCTYPE svg PUBLIC "-//W3C//DTD SVG 1.0//EN" "http://www.w3.org/TR/2001/REC-SVG-20010904/DTD/svg10.dtd">
<!-- Creator: CorelDRAW X7 -->
<svg xmlns="http://www.w3.org/2000/svg" xml:space="preserve" width="162.56mm" height="91.44mm" version="1.0" style="shape-rendering:geometricPrecision; text-rendering:geometricPrecision; image-rendering:optimizeQuality; fill-rule:evenodd; clip-rule:evenodd"
viewBox="0 0 16256 9144"
 xmlns:xlink="http://www.w3.org/1999/xlink">
 <defs>
  <style type="text/css">
   <![CDATA[
    .fil2 {fill:none}
    .fil1 {fill:white}
    .fil3 {fill:black;fill-rule:nonzero}
    .fil4 {fill:#FBEBAD;fill-rule:nonzero}
    .fil0 {fill:url(#id1)}
   ]]>
  </style>
   <clipPath id="id0">
    <path d="M4604 3169c778,0 1410,628 1410,1403 0,775 -632,1403 -1410,1403 -779,0 -1410,-628 -1410,-1403 0,-775 631,-1403 1410,-1403z"/>
   </clipPath>
  <linearGradient id="id1" gradientUnits="userSpaceOnUse" x1="3602.47" y1="4556.98" x2="5605.25" y2="4587.02">
   <stop offset="0" style="stop-opacity:1; stop-color:#FBEBAD"/>
   <stop offset="1" style="stop-opacity:1; stop-color:#D1AC68"/>
  </linearGradient>
 </defs>
 <g id="Camada_x0020_1">
  <metadata id="CorelCorpID_0Corel-Layer"/>
  <path class="fil0" d="M4604 3169c778,0 1410,628 1410,1403 0,775 -632,1403 -1410,1403 -779,0 -1410,-628 -1410,-1403 0,-775 631,-1403 1410,-1403z"/>
  <g style="clip-path:url(#id0)">
   <g id="_658066984">
    <g>
     <path id="1" class="fil1" d="M4693 4717l0 -1 2 0 -2 1zm-107 -46l-134 439c-11,32 -65,151 -61,171 -15,14 -1,-4 -14,19 -2,5 -6,13 -8,19 -5,13 -8,26 -16,34 -4,30 -28,61 -42,89l-31 54c-6,10 -7,17 -13,29 -15,26 -24,20 -33,57l-34 46c-31,43 -44,52 -78,88 -64,64 -40,36 -82,63 -4,2 -8,5 -12,8 -31,21 -58,19 -82,9 66,36 135,66 207,91 -19,-20 -39,-8 -69,-35 11,-26 39,-37 66,-55 7,-5 15,-11 24,-18 33,-27 73,-68 97,-95l38 -52 19 -18c1,-13 7,-17 15,-28 7,-11 9,-16 15,-28 15,-26 26,-32 34,-63 10,-10 47,-92 58,-112 9,-19 48,-101 47,-120 15,-16 23,-43 30,-65 7,-20 22,-43 20,-66 22,-24 58,-163 72,-209l49 -158c16,-60 15,-44 25,-48 14,69 37,122 70,172 33,51 71,73 104,102 15,12 6,2 15,17 10,1 49,24 66,30 89,36 172,42 269,29l38 -4 74 -21c14,-7 25,-13 35,-18 59,-29 55,-16 156,-95 91,-71 123,-134 154,-158l41 -50c2,-14 0,-8 10,-24 37,-56 63,-103 91,-165 2,-5 4,-11 7,-15l9 -14c1,-27 17,-30 12,-66l-28 -5 -26 64 -87 173c-10,15 -17,27 -27,42 -8,12 -15,28 -27,32 -33,63 -143,173 -210,211 -14,9 -43,25 -75,40 -43,19 -91,36 -116,32 -29,24 -134,3 -164,-6 -48,-10 -86,-37 -118,-58 -37,-25 -66,-64 -92,-78 -3,-21 -132,-146 -76,-385 21,-89 70,-170 138,-229 28,-23 43,-37 79,-51l13 -16c30,0 63,-27 113,-31 84,-28 171,28 223,27 2,0 5,-1 7,-1l0 -23 -7 -7 -14 -13c-7,-28 -28,-47 -29,-72 -16,-16 -24,-45 -30,-69 -9,-30 -17,-50 -20,-80 32,-4 62,-4 93,-6 24,-1 49,-2 77,-6l96 -27 43 -17 85 -57c20,-12 2,-4 19,-8 5,-14 3,-10 18,-24 32,-29 40,-51 56,-54 -8,-11 -16,-23 -25,-34 -19,-24 -8,-12 -3,3 -15,24 -82,99 -116,104 -10,25 -107,68 -134,65 -18,15 -68,21 -116,24 -41,3 -80,2 -97,1l0 1c-18,-129 23,-283 97,-391 12,-18 25,-35 39,-50 15,-16 26,-33 46,-36 -25,-19 -51,-36 -78,-53 -2,-2 -5,-4 -7,-5 -16,-10 -8,-5 0,3 0,0 0,1 0,1 0,0 0,1 0,1 -5,9 3,3 -7,13 -35,23 -107,115 -120,151l-10 14c-5,9 -8,16 -11,22 -17,35 -49,110 -45,145 -9,12 -10,23 -12,38 -7,57 -3,74 -6,121l-79 -26c-16,-7 -11,-3 -20,-13 -16,-2 -47,-14 -55,-28 -35,-12 -90,-52 -103,-77 -48,-24 -104,-136 -123,-198 -30,-103 -15,-175 3,-273l-28 -1c-47,72 -30,265 29,375 19,36 46,59 63,93l79 69c14,11 27,20 44,31 21,14 33,16 47,33 11,-2 50,18 65,25l21 14 20 1c1,0 35,12 44,17 7,34 13,67 20,99 8,37 18,60 29,95l12 13c-10,17 -9,10 -35,9 -13,0 -25,-1 -38,-1 -24,0 -52,3 -74,-2l-26 10c-92,18 -98,37 -143,50l-75 52 17 -58c-1,-26 2,-21 -10,-39 -20,-3 -31,-4 -50,0 -5,1 -17,5 -20,7 -13,9 -7,1 -11,16 -8,3 -4,1 -12,8 -22,20 -100,139 -112,150 -15,28 -46,69 -68,97l-34 46c-16,25 -26,31 -32,45l-20 4c-9,19 -26,52 -47,60 -8,44 -24,28 -43,51 -16,20 0,28 -27,48l-7 4 -50 51c-11,15 3,16 -13,34 -5,13 -17,17 -29,31 -8,11 -15,22 -24,33 -9,11 -8,7 -17,17l-41 49c-7,25 -33,40 -49,52 -44,32 6,30 -71,85 -23,16 -39,42 -91,43l-18 -17c-14,-39 0,-81 8,-118 5,-21 7,-38 12,-54 8,-22 14,-18 15,-52l4 -23 78 -192c6,-20 3,-21 15,-39 8,-13 0,7 9,-17l85 -209c11,-26 12,-53 27,-80 28,-51 17,-57 35,-69 0,-23 22,-62 30,-90l40 -135c32,-78 41,-226 41,-313 -1,-67 -19,-100 -23,-157 -3,-2 -33,-68 -62,-95 -11,-10 -18,-14 -21,-30 -19,-4 -105,-72 -151,-79 -23,-4 -50,-6 -71,-11l-12 -10c-27,-21 -90,55 -124,67 41,-17 89,-11 136,2 54,15 128,61 137,118 24,-6 10,1 11,3l15 19c5,8 8,17 13,25 10,21 12,33 16,58 26,149 14,239 -20,385 -8,34 -23,75 -34,108l-57 162c-9,16 -3,-3 -12,25 -18,51 -47,104 -52,141 -34,63 -39,117 -64,154 -31,45 -43,127 -75,147l4 11c-15,13 -43,99 -47,130l-24 110c-6,47 5,97 2,129l28 34c12,12 27,15 39,23 74,6 107,-5 158,-36 26,-16 31,-19 54,-42 16,-16 32,-42 49,-55 5,-8 14,-18 25,-28l177 -230 -1 -1 1 0 38 -49c18,-30 27,-35 42,-57 15,-21 27,-46 45,-59l102 -146c23,-31 74,-125 110,-140 -11,81 -54,177 -76,254 -12,45 -28,88 -40,125z"/>
     <path class="fil1" d="M3493 4107c-15,-16 -12,-10 -20,-30 -31,-11 -53,-154 -60,-237l0 -3c-4,-46 -68,1 -46,42l10 17c19,213 113,239 133,275 11,2 36,12 44,21 22,5 38,17 58,7 7,-41 -5,-14 -44,-41 -6,-4 -4,-4 -9,-9 -21,-1 -50,-26 -66,-42z"/>
    </g>
   </g>
  </g>
  <path class="fil2" d="M4604 3169c778,0 1410,628 1410,1403 0,775 -632,1403 -1410,1403 -779,0 -1410,-628 -1410,-1403 0,-775 631,-1403 1410,-1403z"/>
  <path class="fil3" d="M7563 3832l-269 259 -232 239 -117 127c-69,76 -149,136 -239,181 -91,45 -183,67 -275,67 -52,0 -92,-10 -122,-32 -30,-21 -45,-51 -45,-89 0,-27 8,-51 23,-71 15,-21 34,-31 55,-31 12,0 24,4 33,11 9,7 14,16 14,28 0,12 -5,22 -13,31 -9,8 -19,12 -31,12 -21,0 -33,-11 -36,-32l-5 0c-9,0 -17,5 -22,15 -6,11 -9,23 -9,36 0,37 15,66 43,85 28,20 65,30 111,30 62,0 122,-12 181,-36 58,-24 112,-58 163,-103 50,-44 122,-116 214,-217l154 -165 -4 -4c-211,188 -367,282 -469,282 -34,0 -59,-7 -75,-22 -16,-14 -24,-33 -24,-54 0,-29 10,-61 30,-95 20,-33 39,-59 57,-78 18,-18 59,-51 123,-101 64,-49 115,-92 153,-128 39,-37 65,-67 79,-92 14,-24 21,-50 21,-76 0,-41 -16,-72 -49,-96 -32,-23 -73,-35 -122,-35 -78,0 -159,18 -244,54 -84,35 -148,76 -191,123 -43,46 -64,90 -64,130 0,24 10,44 31,59 21,14 51,22 88,22 72,0 152,-23 241,-68 88,-45 167,-110 237,-195l4 3c-76,97 -152,166 -227,207 -74,42 -155,62 -241,62 -50,0 -86,-8 -109,-25 -22,-17 -34,-39 -34,-66 0,-47 26,-94 76,-143 51,-49 119,-90 203,-122 84,-32 161,-48 232,-48 49,0 92,13 129,39 37,26 55,66 55,121 0,27 -8,59 -24,96 -15,37 -38,70 -68,100 -30,30 -72,67 -127,110 -54,44 -104,85 -150,124 -45,39 -73,66 -83,81 -10,15 -15,31 -15,48 0,17 8,31 25,41 16,11 37,16 61,16 47,0 103,-18 168,-55 65,-37 148,-98 249,-184l128 -106c21,-17 51,-45 91,-83l189 -187 74 0z"/>
  <path id="1" class="fil3" d="M7417 4406l66 0 -210 219c-21,21 -32,38 -32,51 0,8 3,14 9,19 5,4 11,6 18,6 12,0 31,-9 58,-26 26,-18 78,-58 153,-122l5 6c-80,67 -134,109 -160,125 -26,16 -46,24 -60,24 -12,0 -21,-4 -28,-13 -7,-8 -10,-19 -10,-31 0,-21 10,-47 31,-79l-3 -2c-102,84 -171,125 -208,125 -15,0 -28,-6 -36,-19 -9,-13 -13,-29 -13,-50 0,-57 40,-110 120,-159 80,-50 148,-74 203,-74 28,0 43,12 43,36 0,6 -1,13 -1,21l55 -57zm-64 34c0,-18 -11,-27 -34,-27 -42,0 -103,36 -183,108 -81,73 -121,123 -121,153 0,6 3,12 8,18 6,6 14,9 24,9 14,0 38,-9 71,-28 34,-18 75,-48 123,-90 49,-41 80,-71 93,-90 13,-19 19,-36 19,-53z"/>
  <path id="2" class="fil3" d="M7484 4558l-5 -5 274 -230 4 7c-21,17 -34,30 -40,38 -6,9 -9,20 -9,33 0,10 1,26 5,48 4,22 5,42 5,60 0,36 -13,70 -38,101l68 -57 4 5c-112,98 -203,147 -273,147 -17,0 -31,-4 -43,-14 -13,-10 -19,-23 -19,-39 0,-11 4,-21 12,-29 8,-9 17,-13 27,-13 7,0 12,2 17,7 5,4 7,9 7,16 0,8 -3,15 -10,22 -6,7 -14,10 -21,10 -3,0 -7,0 -12,-2 0,23 14,35 42,35 39,0 84,-29 133,-86 50,-58 77,-118 82,-182 2,-20 5,-38 10,-55l-220 183z"/>
  <path id="3" class="fil3" d="M7754 4558l-6 -6 76 -62c75,-63 128,-94 160,-94 27,0 41,16 41,47 0,28 -22,66 -65,113l3 3c128,-107 215,-160 262,-160 15,0 27,5 36,13 9,9 13,18 13,29 0,29 -24,69 -72,119l3 2c34,-32 68,-61 104,-86 35,-25 64,-43 89,-54 24,-11 45,-16 62,-16 33,0 49,14 49,43 0,25 -9,49 -28,73 -18,23 -60,61 -124,112 -17,15 -26,26 -26,35 0,18 11,27 35,27 22,0 49,-9 78,-26 30,-18 80,-57 150,-117l4 6c-82,69 -136,111 -164,124 -27,14 -50,21 -68,21 -14,0 -26,-5 -36,-15 -10,-10 -15,-22 -15,-35 0,-19 8,-38 22,-58 14,-19 43,-46 87,-81 45,-35 67,-61 67,-79 0,-14 -10,-21 -29,-21 -25,0 -57,11 -96,33 -40,23 -85,58 -136,106l-89 83c-26,25 -46,45 -60,61l-76 1 103 -102c55,-55 92,-94 110,-116 19,-23 28,-40 28,-51 0,-5 -2,-10 -7,-15 -5,-5 -11,-8 -19,-8 -22,0 -56,16 -103,47 -48,31 -97,69 -149,115l-142 129 -75 1 27 -30 97 -96c51,-50 85,-86 102,-106 17,-20 25,-35 25,-46 0,-11 -7,-17 -20,-17 -18,0 -44,12 -79,35 -33,23 -84,63 -149,119z"/>
  <path id="4" class="fil3" d="M8967 4258c0,11 -4,20 -13,27 -9,8 -18,11 -28,11 -7,0 -13,-2 -18,-7 -5,-6 -7,-12 -7,-19 0,-10 4,-19 12,-27 9,-9 18,-13 28,-13 8,0 14,3 19,9 4,5 7,11 7,19zm-368 300l-6 -6c25,-20 87,-70 185,-146l73 0 -237 233c-9,9 -15,18 -18,27l0 6c0,6 3,12 8,17 5,5 11,7 19,7 16,0 38,-8 68,-24 29,-16 80,-56 153,-119l5 6c-112,96 -187,145 -226,145 -12,0 -22,-4 -30,-12 -8,-8 -12,-19 -12,-32 0,-19 7,-39 19,-61 13,-21 61,-71 143,-151l-1 -4 -69 52 -74 62z"/>
  <path id="5" class="fil3" d="M8843 4553c118,-99 198,-149 241,-149 10,0 18,3 25,10 8,6 11,15 11,26 0,34 -21,73 -63,118l3 3c118,-104 199,-155 244,-155 34,0 51,14 51,43 0,19 -7,40 -20,60 -14,21 -39,47 -75,78 -37,32 -60,52 -68,62 -9,10 -13,18 -13,25 0,6 2,11 7,14 4,5 10,7 16,7 15,0 39,-9 72,-25 32,-16 69,-41 110,-76l48 -41 5 5c-108,96 -187,144 -238,144 -11,0 -20,-4 -28,-13 -8,-9 -12,-20 -12,-33 0,-13 3,-25 9,-39 6,-13 13,-24 21,-33 8,-9 27,-26 56,-51l35 -30c39,-33 58,-56 58,-69 0,-14 -10,-21 -29,-21 -38,0 -89,27 -156,79 -66,53 -143,121 -231,206l-74 0 208 -208c32,-32 49,-54 49,-64 0,-9 -7,-14 -21,-14 -40,0 -118,48 -235,146l-6 -5z"/>
  <path id="6" class="fil3" d="M10563 4041c1,26 8,46 21,59l19 0c39,0 68,4 87,12 20,8 29,17 29,28 0,6 -3,12 -10,16 -6,4 -14,7 -22,7 -38,0 -73,-19 -107,-56 -150,21 -272,85 -368,192 -95,107 -143,198 -143,274 0,35 16,66 48,91 32,25 77,38 134,38 106,0 215,-32 324,-98 110,-66 164,-137 164,-215 0,-26 -9,-47 -27,-64 -18,-17 -42,-25 -73,-25 -78,0 -164,29 -258,88 -94,60 -167,129 -220,208l-6 -3c54,-78 128,-148 222,-208 94,-60 180,-90 259,-90 36,0 63,10 84,29 20,19 30,41 30,67 0,79 -56,152 -169,218 -113,66 -222,99 -326,99 -76,0 -132,-20 -168,-59 -36,-40 -55,-85 -55,-136 0,-88 42,-171 125,-247 84,-75 223,-130 419,-165 -15,-14 -26,-33 -34,-56 -82,17 -149,25 -201,25 -81,0 -144,-17 -189,-54 -44,-36 -66,-76 -66,-121 0,-90 52,-163 155,-220 104,-57 223,-86 357,-86l0 5c-144,0 -263,33 -355,98 -92,66 -138,137 -138,214 0,40 21,77 62,109 42,32 104,48 184,48 51,0 114,-8 191,-25 -6,-18 -9,-34 -9,-49 0,-54 23,-107 69,-159 46,-53 116,-102 210,-148 93,-47 171,-70 233,-70 30,0 54,7 73,20 19,13 29,31 29,55 0,54 -53,116 -158,186 -105,71 -247,127 -426,168zm1 -7c183,-44 324,-100 424,-167 101,-68 151,-129 151,-183 0,-19 -8,-35 -25,-47 -17,-11 -40,-17 -68,-17 -83,0 -181,48 -294,143 -113,95 -175,185 -188,271zm26 73c31,32 64,48 98,48 16,0 24,-5 24,-16 0,-11 -11,-19 -33,-25 -22,-5 -43,-8 -62,-8 -6,0 -15,0 -27,1z"/>
  <path id="7" class="fil3" d="M10764 4558l-6 -5 107 -89c12,-10 32,-23 58,-40 27,-16 49,-25 68,-25 9,0 17,4 25,11 8,7 11,17 11,29 0,16 -5,34 -16,56 -10,22 -36,50 -75,84 -39,34 -63,56 -72,66 -8,9 -12,18 -12,26 0,16 10,24 31,24 27,0 68,-15 122,-44 54,-28 98,-59 132,-90 18,-46 40,-85 66,-115 25,-31 43,-47 52,-47 8,0 12,5 12,15 0,12 -15,37 -45,73 -30,37 -55,63 -76,77 1,22 11,32 30,32 18,0 44,-14 77,-43l5 5 -25 20c-22,17 -41,26 -57,26 -19,0 -33,-10 -41,-30 -45,37 -93,68 -143,93 -50,26 -87,38 -109,38 -11,0 -22,-4 -34,-13 -11,-9 -17,-23 -17,-41 0,-19 6,-38 19,-58 12,-20 42,-48 88,-86 45,-37 68,-63 68,-78 0,-5 -2,-9 -7,-14 -6,-5 -11,-8 -17,-8 -23,0 -70,29 -141,85l-78 66z"/>
  <path id="8" class="fil3" d="M11556 4553l5 6c-60,52 -115,90 -164,114 -49,24 -89,35 -118,35 -41,0 -61,-21 -61,-63 0,-56 38,-109 116,-160 77,-50 137,-75 180,-75 8,0 15,3 21,7 6,4 9,10 9,17 0,24 -25,50 -73,77 -48,27 -102,43 -161,50 -51,51 -77,87 -77,106 0,9 5,17 14,25 9,8 19,12 31,12 26,0 63,-11 111,-34 47,-23 103,-62 167,-117zm-235 0c15,0 41,-6 79,-19 38,-13 70,-30 95,-51 25,-20 38,-37 38,-51 0,-9 -5,-14 -16,-14 -14,0 -28,4 -44,12 -15,8 -39,24 -71,49 -32,25 -59,50 -81,74z"/>
  <path id="9" class="fil3" d="M11557 4553c117,-99 197,-149 240,-149 10,0 18,3 25,10 8,6 11,15 11,26 0,34 -21,73 -63,118l3 3c118,-104 199,-155 244,-155 35,0 51,14 51,43 0,19 -7,40 -20,60 -14,21 -39,47 -75,78 -37,32 -60,52 -68,62 -9,10 -13,18 -13,25 0,6 2,11 7,14 4,5 10,7 16,7 15,0 39,-9 72,-25 32,-16 69,-41 110,-76l48 -41 5 5c-108,96 -187,144 -238,144 -11,0 -20,-4 -28,-13 -8,-9 -12,-20 -12,-33 0,-13 3,-25 9,-39 6,-13 13,-24 21,-33 8,-9 27,-26 56,-51l35 -30c39,-33 59,-56 59,-69 0,-14 -10,-21 -30,-21 -38,0 -89,27 -155,79 -67,53 -144,121 -232,206l-74 0 208 -208c32,-32 49,-54 49,-64 0,-9 -7,-14 -21,-14 -40,0 -118,48 -235,146l-5 -5z"/>
  <path id="10" class="fil3" d="M12150 4558l-5 -6 205 -167 87 -69 -68 0 4 -7 76 0 127 -134 64 -2 -124 136 110 0 -2 7 -116 0 -257 276c-30,33 -49,54 -55,62 -6,9 -9,17 -9,24 0,8 3,14 9,19 6,6 13,8 20,8 41,0 119,-50 235,-152l5 6c-121,103 -201,154 -242,154 -13,0 -24,-5 -34,-16 -9,-10 -13,-23 -13,-37 0,-37 25,-83 75,-136l153 -159 -4 -3 -241 196z"/>
  <path id="11" class="fil3" d="M12783 4553l5 6c-18,17 -37,26 -56,26 -16,0 -29,-6 -40,-18 -37,39 -77,72 -119,99 -42,26 -77,39 -105,39 -15,0 -27,-5 -37,-15 -10,-11 -15,-25 -15,-44 0,-42 19,-83 57,-123 38,-39 82,-69 131,-91 50,-22 89,-33 118,-33 28,0 43,14 43,41 0,28 -23,68 -68,121 9,11 21,17 36,17 17,0 33,-8 50,-25zm-26 -114c0,-9 -3,-17 -11,-23 -7,-6 -15,-9 -24,-9 -38,0 -96,38 -172,113 -77,76 -116,126 -116,150 0,7 4,13 11,19 7,6 15,9 24,9 21,0 51,-11 90,-33 40,-21 74,-48 104,-79 30,-31 53,-58 69,-83 17,-25 25,-46 25,-64z"/>
  <path id="12" class="fil3" d="M12789 4558l-5 -5 274 -230 4 7c-21,17 -34,30 -40,38 -6,9 -9,20 -9,33 0,10 2,26 5,48 4,22 6,42 6,60 0,36 -13,70 -39,101l68 -57 4 5c-112,98 -203,147 -273,147 -17,0 -31,-4 -43,-14 -13,-10 -19,-23 -19,-39 0,-11 4,-21 12,-29 8,-9 17,-13 27,-13 7,0 13,2 17,7 5,4 7,9 7,16 0,8 -3,15 -10,22 -6,7 -14,10 -21,10 -3,0 -7,0 -12,-2 0,23 14,35 42,35 39,0 84,-29 133,-86 50,-58 77,-118 82,-182 2,-20 5,-38 10,-55l-220 183z"/>
  <path class="fil4" d="M7037 4899l164 353 -38 0 -55 -116 -153 0 -55 116 -39 0 167 -353 9 0zm-5 74l-61 128 122 0 -61 -128z"/>
  <path id="1" class="fil4" d="M7504 5045l-27 17c-23,-31 -54,-46 -94,-46 -32,0 -59,10 -80,30 -21,21 -32,46 -32,75 0,19 5,37 15,53 10,17 23,30 40,39 17,10 36,14 57,14 38,0 70,-15 94,-45l27 17c-13,19 -29,33 -50,44 -22,10 -46,15 -73,15 -41,0 -75,-13 -103,-39 -27,-26 -41,-58 -41,-96 0,-25 7,-48 20,-70 12,-21 30,-38 52,-50 23,-13 47,-19 75,-19 17,0 34,3 50,8 16,5 30,12 41,21 12,8 21,19 29,32z"/>
  <path id="2" class="fil4" d="M7789 5165l28 15c-9,18 -20,33 -32,44 -12,11 -26,20 -41,26 -16,5 -33,8 -52,8 -43,0 -76,-14 -100,-42 -24,-27 -36,-59 -36,-94 0,-33 10,-63 30,-88 26,-33 61,-50 104,-50 45,0 81,17 107,51 19,24 29,53 29,89l-236 0c1,30 10,55 29,74 19,20 42,29 70,29 13,0 26,-2 39,-7 13,-4 23,-10 32,-18 9,-8 19,-20 29,-37zm0 -70c-4,-18 -11,-32 -19,-43 -9,-11 -21,-19 -35,-26 -14,-6 -29,-10 -44,-10 -26,0 -48,8 -67,25 -13,12 -24,30 -31,54l196 0z"/>
  <path id="3" class="fil4" d="M8020 5019l-22 22c-18,-17 -35,-26 -53,-26 -10,0 -20,4 -28,11 -7,7 -11,16 -11,25 0,9 3,17 9,24 7,8 20,18 41,28 25,13 42,25 51,37 8,13 13,26 13,41 0,22 -8,40 -23,55 -15,15 -34,22 -56,22 -15,0 -30,-3 -44,-10 -13,-6 -25,-15 -34,-27l22 -24c17,20 35,29 54,29 14,0 25,-4 35,-13 9,-8 14,-18 14,-30 0,-10 -3,-18 -10,-26 -6,-7 -20,-16 -42,-28 -24,-12 -40,-24 -48,-35 -9,-12 -13,-26 -13,-41 0,-20 7,-36 21,-49 13,-13 30,-20 51,-20 24,0 48,12 73,35z"/>
  <path id="4" class="fil4" d="M8211 5019l-22 22c-18,-17 -36,-26 -53,-26 -11,0 -20,4 -28,11 -8,7 -11,16 -11,25 0,9 3,17 9,24 7,8 20,18 41,28 24,13 41,25 50,37 9,13 14,26 14,41 0,22 -8,40 -23,55 -15,15 -34,22 -57,22 -15,0 -29,-3 -43,-10 -13,-6 -25,-15 -34,-27l21 -24c18,20 36,29 55,29 14,0 25,-4 34,-13 10,-8 15,-18 15,-30 0,-10 -3,-18 -10,-26 -6,-7 -20,-16 -42,-28 -24,-12 -40,-24 -48,-35 -9,-12 -13,-26 -13,-41 0,-20 7,-36 20,-49 14,-13 31,-20 52,-20 24,0 48,12 73,35z"/>
  <path id="5" class="fil4" d="M8394 4984c40,0 73,15 100,44 24,26 36,58 36,94 0,36 -13,68 -38,95 -26,28 -59,41 -98,41 -41,0 -73,-13 -99,-41 -25,-27 -38,-59 -38,-95 0,-36 12,-67 36,-94 27,-29 60,-44 101,-44zm-1 33c-28,0 -51,11 -72,31 -20,21 -30,46 -30,75 0,19 5,36 14,52 9,17 22,29 37,38 16,9 33,13 51,13 19,0 36,-4 52,-13 15,-9 28,-21 37,-38 9,-16 13,-33 13,-52 0,-29 -10,-54 -30,-75 -20,-20 -44,-31 -72,-31z"/>
  <path id="6" class="fil4" d="M8579 4991l34 0 0 38c11,-15 21,-26 33,-34 11,-7 23,-11 35,-11 10,0 20,3 30,9l-17 28c-7,-3 -13,-4 -18,-4 -11,0 -22,4 -33,14 -10,9 -18,23 -23,42 -5,15 -7,45 -7,91l0 88 -34 0 0 -261z"/>
  <path id="7" class="fil4" d="M8751 4884c8,0 14,2 20,8 5,5 8,12 8,19 0,8 -3,14 -8,20 -6,5 -12,8 -20,8 -7,0 -14,-3 -19,-8 -5,-6 -8,-12 -8,-20 0,-7 3,-14 8,-19 5,-6 12,-8 19,-8zm-16 107l33 0 0 261 -33 0 0 -261z"/>
  <path id="8" class="fil4" d="M9098 4991l0 261 -33 0 0 -45c-14,17 -30,30 -48,38 -17,9 -36,13 -57,13 -37,0 -68,-13 -95,-40 -26,-27 -39,-59 -39,-97 0,-38 13,-70 40,-97 26,-26 58,-40 95,-40 21,0 41,5 58,14 17,9 33,22 46,41l0 -48 33 0zm-134 26c-19,0 -36,4 -52,14 -16,9 -28,22 -38,38 -9,17 -14,34 -14,53 0,18 5,36 14,52 10,17 22,30 38,39 16,10 33,14 51,14 19,0 36,-4 53,-14 16,-9 29,-21 37,-37 9,-16 14,-34 14,-53 0,-30 -10,-56 -30,-76 -20,-20 -44,-30 -73,-30z"/>
  <path id="9" class="fil4" d="M9531 5165l28 15c-9,18 -20,33 -32,44 -12,11 -26,20 -41,26 -16,5 -33,8 -52,8 -43,0 -76,-14 -100,-42 -25,-27 -37,-59 -37,-94 0,-33 11,-63 31,-88 26,-33 61,-50 104,-50 45,0 80,17 107,51 19,24 29,53 29,89l-236 0c0,30 10,55 29,74 19,20 42,29 70,29 13,0 26,-2 39,-7 12,-4 23,-10 32,-18 9,-8 18,-20 29,-37zm0 -70c-5,-18 -11,-32 -20,-43 -8,-11 -20,-19 -34,-26 -14,-6 -29,-10 -45,-10 -25,0 -48,8 -66,25 -14,12 -24,30 -31,54l196 0z"/>
  <path id="10" class="fil4" d="M10020 5045l-27 17c-23,-31 -55,-46 -95,-46 -32,0 -58,10 -79,30 -21,21 -32,46 -32,75 0,19 5,37 15,53 9,17 23,30 40,39 16,10 35,14 57,14 38,0 70,-15 94,-45l27 17c-13,19 -30,33 -51,44 -21,10 -45,15 -72,15 -41,0 -76,-13 -103,-39 -27,-26 -41,-58 -41,-96 0,-25 6,-48 19,-70 13,-21 31,-38 53,-50 22,-13 47,-19 75,-19 17,0 34,3 50,8 16,5 30,12 41,21 11,8 21,19 29,32z"/>
  <path id="11" class="fil4" d="M10304 5165l29 15c-9,18 -20,33 -32,44 -13,11 -26,20 -42,26 -15,5 -32,8 -51,8 -43,0 -77,-14 -101,-42 -24,-27 -36,-59 -36,-94 0,-33 10,-63 31,-88 26,-33 60,-50 104,-50 44,0 80,17 107,51 19,24 28,53 29,89l-236 0c0,30 10,55 29,74 19,20 42,29 70,29 13,0 26,-2 39,-7 12,-4 23,-10 32,-18 9,-8 18,-20 28,-37zm1 -70c-5,-18 -11,-32 -20,-43 -9,-11 -20,-19 -34,-26 -14,-6 -29,-10 -45,-10 -26,0 -48,8 -66,25 -14,12 -24,30 -31,54l196 0z"/>
  <path id="12" class="fil4" d="M10391 4991l34 0 0 38c10,-15 21,-26 33,-34 11,-7 23,-11 35,-11 10,0 20,3 30,9l-17 28c-8,-3 -13,-4 -18,-4 -11,0 -22,4 -33,14 -10,9 -18,23 -24,42 -4,15 -6,45 -6,91l0 88 -34 0 0 -261z"/>
  <path id="13" class="fil4" d="M10563 4884c8,0 14,2 20,8 5,5 8,12 8,19 0,8 -3,14 -8,20 -6,5 -12,8 -20,8 -7,0 -14,-3 -19,-8 -6,-6 -8,-12 -8,-20 0,-7 2,-14 8,-19 5,-6 12,-8 19,-8zm-16 107l33 0 0 261 -33 0 0 -261z"/>
  <path id="14" class="fil4" d="M10650 4991l33 0 0 45c12,-17 24,-29 36,-37 17,-10 35,-15 54,-15 13,0 25,3 36,8 11,5 21,11 28,20 7,8 13,20 19,35 11,-20 25,-36 42,-47 16,-10 34,-16 54,-16 18,0 34,5 48,14 13,9 24,22 30,38 7,16 10,41 10,73l0 143 -34 0 0 -143c0,-28 -2,-47 -6,-57 -4,-11 -11,-19 -20,-26 -10,-6 -22,-9 -35,-9 -16,0 -31,5 -45,14 -13,10 -23,23 -29,39 -6,16 -10,42 -10,80l0 102 -33 0 0 -134c0,-31 -2,-53 -6,-64 -4,-11 -11,-20 -20,-27 -10,-7 -22,-10 -35,-10 -16,0 -30,4 -44,14 -13,9 -23,22 -30,38 -6,15 -10,40 -10,72l0 111 -33 0 0 -261z"/>
  <path id="15" class="fil4" d="M11235 4984c40,0 74,15 100,44 24,26 36,58 36,94 0,36 -12,68 -38,95 -25,28 -58,41 -98,41 -40,0 -73,-13 -98,-41 -26,-27 -39,-59 -39,-95 0,-36 12,-67 37,-94 26,-29 60,-44 100,-44zm0 33c-28,0 -52,11 -72,31 -20,21 -30,46 -30,75 0,19 4,36 14,52 9,17 21,29 37,38 15,9 32,13 51,13 18,0 36,-4 51,-13 16,-9 28,-21 37,-38 9,-16 14,-33 14,-52 0,-29 -10,-54 -30,-75 -20,-20 -44,-31 -72,-31z"/>
  <path id="16" class="fil4" d="M11433 4991l34 0 0 47c13,-18 28,-32 44,-40 17,-9 35,-14 54,-14 19,0 37,5 52,15 15,10 26,23 34,40 7,17 10,43 10,79l0 134 -33 0 0 -125c0,-30 -1,-50 -4,-60 -4,-17 -12,-30 -23,-39 -11,-8 -25,-13 -43,-13 -20,0 -39,7 -55,20 -16,14 -26,30 -32,50 -3,13 -4,37 -4,71l0 96 -34 0 0 -261z"/>
  <path id="17" class="fil4" d="M11745 4884c7,0 14,2 19,8 6,5 8,12 8,19 0,8 -2,14 -8,20 -5,5 -12,8 -19,8 -8,0 -14,-3 -20,-8 -5,-6 -8,-12 -8,-20 0,-7 3,-14 8,-19 6,-6 12,-8 20,-8zm-17 107l34 0 0 261 -34 0 0 -261z"/>
  <path id="18" class="fil4" d="M12092 4991l0 261 -34 0 0 -45c-14,17 -30,30 -47,38 -18,9 -37,13 -58,13 -36,0 -68,-13 -94,-40 -26,-27 -39,-59 -39,-97 0,-38 13,-70 39,-97 27,-26 58,-40 95,-40 22,0 41,5 59,14 17,9 32,22 45,41l0 -48 34 0zm-135 26c-19,0 -36,4 -52,14 -15,9 -28,22 -37,38 -10,17 -14,34 -14,53 0,18 4,36 14,52 9,17 22,30 38,39 16,10 33,14 51,14 18,0 36,-4 52,-14 16,-9 29,-21 38,-37 9,-16 13,-34 13,-53 0,-30 -10,-56 -30,-76 -19,-20 -44,-30 -73,-30z"/>
  <path id="19" class="fil4" d="M12163 4890l33 0 0 362 -33 0 0 -362z"/>
 </g>
</svg>
